<svg width="290" height="76" viewBox="0 0 290 76" fill="none" xmlns="http://www.w3.org/2000/svg">
<g clip-path="url(#clip0_859_10486)">
<path d="M46.5775 23.2186C45.0643 23.6378 43.5989 24.208 42.2003 24.9099C41.0547 25.5338 40.3673 26.7815 40.4437 28.0975C40.353 28.9261 40.6442 29.7401 41.2313 30.3152C41.8184 30.8952 42.6251 31.1633 43.4318 31.0414C44.5488 31.0609 45.6467 30.7344 46.5822 30.0959V23.2137L46.5775 23.2186ZM41.8041 33.9951C36.4103 33.9951 36.0045 29.8132 36.0045 28.6093C35.9043 26.1333 37.4795 23.9058 39.8136 23.2235C43.3316 21.8928 44.1287 21.7369 46.5727 20.957V20.3137C46.6347 19.5533 46.5536 18.7783 46.3245 18.0521C45.766 16.5168 44.2719 15.5615 42.6824 15.7223C41.1406 15.6833 39.6848 16.4875 38.8876 17.8376L38.6776 18.2471L37.6704 17.6378L37.7802 17.3307C38.8447 14.5525 41.5607 12.8125 44.4772 13.0562C46.6491 12.7589 48.8209 13.6557 50.1766 15.4104C50.926 17.0578 51.241 18.8709 51.0739 20.6743C51.0739 22.468 51.0739 24.3689 50.9928 25.9334V28.5264C50.9928 29.9545 51.2028 31.0707 52.3723 31.0707C52.611 31.0902 52.8401 31.0171 53.0262 30.8757L53.3461 30.5882L54 31.3436L53.79 31.6312C52.9308 33.0057 51.4654 33.8489 49.8711 33.8976C48.5059 34.039 47.2314 33.1763 46.8304 31.8457C45.5321 33.2202 43.7278 33.9805 41.8471 33.9415L41.8137 34L41.8041 33.9951Z" fill="white"/>
<path d="M8.07472 33.9935C5.77556 34.0513 3.49117 33.7235 1.31017 33.0339H1V27.243H2.19635V27.6673C2.21604 28.5545 2.5459 29.4079 3.12192 30.083C4.44628 31.1679 6.13496 31.7176 7.85317 31.626C11.7721 31.626 13.5888 30.1939 13.5888 27.0838C13.5888 24.4174 11.9001 23.2987 9.57139 21.7558L9.21199 21.505L6.76513 19.9042C3.35332 17.6813 1.62033 15.9069 1.62033 12.3725C1.62033 10.5981 2.28989 5 10.8908 5C13.0127 5 15.1347 5.1543 17.2418 5.46289H17.6209V11.3503H16.4984V10.9597C16.4984 10.0532 16.139 9.18532 15.499 8.52474C14.1648 7.60859 12.5401 7.18428 10.9154 7.32893C6.36143 7.32893 5.83464 9.62411 5.83464 11.3455C5.83464 13.7033 7.0753 14.5086 9.77324 16.2685L12.87 18.2744C15.5138 20.0488 18 21.6352 18 25.9266C18 33.2075 11.073 33.9935 8.09933 33.9935H8.08456H8.07472Z" fill="white"/>
<path d="M28.4919 33.944C25.3727 33.944 23.6656 32.8196 22.8967 30.3722C22.6259 29.025 22.5244 27.6438 22.5824 26.2723V16.0417H20V15.2517L20.2611 15.15C21.0736 14.8447 21.8377 14.4085 22.505 13.856C23.8494 12.7123 24.9713 11.3262 25.8176 9.77541L26.2625 9H27.133V13.541H34V16.0417H27.133V26.6454C27.133 29.8052 27.7278 31.6081 30.6971 31.6081C31.553 31.6032 32.3945 31.4142 33.1731 31.0701L33.5841 30.8569L33.9468 31.6759L33.7727 31.8795C32.3993 33.3479 30.4311 34.1281 28.429 33.9828L28.4967 33.944H28.4919Z" fill="white"/>
<path d="M56.205 33.9408V32.9683H56.6004C57.2837 32.9238 57.9329 32.6276 58.3966 32.1241C59.0263 31.4231 59.0605 29.6509 59.0605 26.1657V20.2863C59.2411 18.8942 59.1093 17.4626 58.6651 16.1248C58.1868 15.6509 57.5424 15.3942 56.8688 15.414H56.7126L56.205 15.3942V14.2292H56.9811C58.1819 14.2094 59.3875 14.0762 60.5785 13.8491C61.3302 13.7257 62.0575 13.469 62.736 13.1037H62.9508L63.3608 13.3406V14.9598C65.0643 13.6911 67.129 13.0099 69.2475 13C72.8449 13 75.305 14.8166 75.9883 17.8674C76.1836 19.0719 76.2666 20.2913 76.2617 21.5056V27.5085C76.2617 30.89 76.3837 31.8575 77.0134 32.4549C77.482 32.7955 78.0238 32.9979 78.5949 33.0127H79V33.9803H77.9896C76.5399 33.9803 75.2708 33.8371 73.9627 33.8371C72.6545 33.8371 71.1609 33.8371 69.3451 34H68.8765V33.0324H69.2328C69.8527 32.9781 70.4433 32.7313 70.9266 32.3315C71.5904 31.6502 71.6099 30.0903 71.6539 28.6932V24.3441C71.6831 22.7743 71.6295 21.2094 71.4977 19.6446C71.5172 18.5289 71.0486 17.4577 70.2139 16.7073C69.389 15.957 68.2859 15.6065 67.1778 15.7496C65.855 15.7151 64.5469 16.0063 63.3657 16.6135V27.4147C63.3657 30.7962 63.517 31.7638 64.1466 32.3611C64.5957 32.7017 65.1375 32.9041 65.7086 32.9288H66.104V33.8963H65.0253C63.6195 33.8963 62.3943 33.763 61.1203 33.763C59.8463 33.763 58.26 33.7631 56.4491 33.926H56L56.2148 33.9408H56.205Z" fill="white"/>
<path d="M81 33.9756V32.9947H81.3849C82.0502 32.9508 82.6727 32.658 83.1337 32.1651C83.7467 31.4722 83.7657 29.7398 83.7657 26.2896V16.2027H81.2138V15.0705L81.4705 14.9583C82.3021 14.6509 83.0766 14.2263 83.7847 13.7042C83.7704 11.8986 83.8702 10.1027 84.0841 8.31177C84.8681 4.11499 87.5863 2.00196 92.0294 2.00196C93.7639 1.96292 95.4556 2.50947 96.8622 3.54403L97 3.66603V4.09547L95.0374 6.90146H94.5717L94.4624 6.6477C93.9872 5.17882 92.6282 4.20283 91.117 4.26139C90.39 4.23211 89.6772 4.49563 89.1212 4.97386C88.2611 5.86202 88.128 7.17474 88.128 9.76113V13.6846H92.5426V16.2027H88.204V27.4706C88.033 28.9931 88.1755 30.5303 88.6412 31.9846C89.1782 32.8483 90.8652 32.902 91.3689 32.902H91.768V34H91.3309C89.1592 33.8975 87.5388 33.8438 86.3793 33.8438C84.9109 33.8438 83.2239 33.8438 81.4609 34H81.0047V33.9805L81 33.9756Z" fill="white"/>
<path d="M104.027 15.3307C103.009 15.2776 101.997 15.6009 101.182 16.2378C99.5724 17.5889 98.7674 20.0595 98.7674 23.5627C98.7674 24.9138 99.0181 31.6645 103.954 31.6645C104.981 31.7176 105.988 31.3943 106.793 30.7574C108.413 29.4111 109.228 26.9405 109.228 23.4324C109.228 22.0813 108.958 15.3307 104.022 15.3307H104.027ZM103.785 34C97.6539 34 94 30.1783 94 23.775C94 18.8146 96.685 13 104.215 13C110.336 13 114 16.8217 114 23.2201C114 28.2047 111.315 34 103.785 34Z" fill="white"/>
<path d="M116.075 33.8178V32.7885H116.482C117.185 32.7392 117.853 32.4388 118.329 31.9364C118.977 31.2273 119.012 29.538 119.012 26.0561V20.1904C119.198 18.8016 119.062 17.3734 118.606 16.0387C118.114 15.5561 117.451 15.3 116.758 15.3295H116.181V14.0884H116.979C118.224 14.0589 119.454 13.9308 120.679 13.6895C121.452 13.5861 122.19 13.3891 122.913 13.1133L123.154 13L123.531 13.197V15.0094C124.841 13.8175 126.568 13.1674 128.355 13.197C129.625 13.1379 130.88 13.5467 131.874 14.3396L132 14.4726V15.1079L130.152 18.2845H129.304L129.169 18.0875C128.436 16.9744 127.145 16.3391 125.805 16.4327C124.997 16.413 124.198 16.6494 123.531 17.0828V27.4153C123.36 28.9273 123.505 30.4688 123.972 31.9315C124.56 32.7835 126.332 32.8574 126.854 32.8574H127.376V34H126.914C124.625 33.8867 122.898 33.8276 121.668 33.8276C120.107 33.8276 118.355 33.8276 116.482 34H116L116.075 33.8079V33.8178Z" fill="white"/>
<path d="M143.729 15.3819C139.746 15.3819 137.828 18.0874 137.828 23.6296C137.828 25.8834 138.477 31.1148 144.378 31.1148H144.554C145.677 31.1342 146.79 30.8427 147.776 30.2842V16.742C146.653 15.7754 145.198 15.2896 143.729 15.3819ZM148.401 33.9951L147.859 33.8009V32.0134C146.219 33.2325 144.222 33.898 142.172 33.9077C136.598 33.9077 133 30.0559 133 24.1008C132.99 22.255 133.366 20.4287 134.098 18.7335C135.861 15.037 139.683 12.7395 143.793 12.9532C145.135 12.9484 146.463 13.0747 147.776 13.3467V9.02854C147.932 7.55677 147.8 6.05586 147.371 4.62781C146.902 4.15179 146.248 3.89435 145.574 3.92835H145.057V3.01518H145.486C146.951 2.90346 148.401 2.70917 149.836 2.44687C150.519 2.34487 151.193 2.19429 151.852 2H152.057L152.413 2.21372V2.40801C152.276 4.07893 152.257 7.63934 152.257 10.306V26.7966C152.086 28.2975 152.218 29.8179 152.652 31.2702C153.111 31.7656 153.775 32.0328 154.448 32.0085H155V33.1014H154.57C153.248 33.1548 151.939 33.2957 150.636 33.5143C149.933 33.5968 149.24 33.7571 148.567 33.9806H148.371L148.405 34L148.401 33.9951Z" fill="white"/>
<path d="M201.888 4H193V34H202.039C210.155 34 215 28.3532 215 18.9002C215 9.44729 210.097 4 201.884 4H201.888ZM196.859 7.31227H201.631C207.608 7.31227 211.034 11.5374 211.034 18.9002C211.034 26.2631 207.608 30.6877 201.631 30.6877H196.859V7.31227Z" fill="white"/>
<path d="M227.5 12C221.264 12 218 17.5479 218 23.0252C218 28.5025 221.264 34 227.5 34C233.736 34 237 28.4773 237 23.0252C237 17.5731 233.736 12 227.5 12ZM233.122 23.0252C233.122 27.6257 230.864 30.7146 227.5 30.7146C224.136 30.7146 221.878 27.6257 221.878 23.0252C221.878 18.4246 224.136 15.2854 227.5 15.2854C230.864 15.2854 233.122 18.3944 233.122 23.0252Z" fill="white"/>
<path d="M250.527 12C245.911 12 241 15.8649 241 23.0252C241 29.4851 245.168 34 251.132 34C253.602 34 255.811 33.3097 258.09 31.8333L258.242 31.7375L256.8 29.1173L256.633 29.2281C254.95 30.3317 253.341 30.8456 251.565 30.8456C247.796 30.8456 245.183 28.18 244.863 24.038H258.803L258.833 23.8818C258.936 23.3527 259 22.5969 259 21.8612C259 15.6885 255.831 12.005 250.522 12.005L250.527 12ZM255.521 21.1507H244.843C245.301 17.5579 247.589 15.1645 250.59 15.1645C253.592 15.1645 255.467 17.2909 255.521 21.1507Z" fill="white"/>
<path d="M272.604 12C270.155 12 267.836 13.3488 266.473 15.5492L266.203 12.1231H263V33H266.821V19.5513C268.333 15.8495 271.058 15.4459 272.164 15.4459C272.928 15.4459 273.357 15.5394 274.087 15.7707L274.28 15.8298L275 12.4972L274.865 12.4332C274.213 12.128 273.56 12 272.609 12H272.604Z" fill="white"/>
<path d="M289.86 12.4332C289.208 12.128 288.556 12 287.604 12C285.155 12 282.841 13.3488 281.473 15.5492L281.203 12.1231H278V33H281.821V19.5513C283.333 15.8495 286.058 15.4458 287.164 15.4458C287.928 15.4458 288.358 15.5394 289.087 15.7707L289.28 15.8298L290 12.4972L289.865 12.4332H289.86Z" fill="white"/>
<path d="M193 51C193 50.3704 193.68 50 194.5 50C195.32 50 196 50.3704 196 51C196 51.5885 195.32 52 194.5 52C193.68 52 193 51.5844 193 51Z" fill="white"/>
<path d="M246 51C246 50.3704 246.68 50 247.5 50C248.32 50 249 50.3704 249 51C249 51.5885 248.32 52 247.5 52C246.68 52 246 51.5844 246 51Z" fill="white"/>
<path d="M260 51C260 50.3704 260.68 50 261.5 50C262.32 50 263 50.3704 263 51C263 51.5885 262.32 52 261.5 52C260.68 52 260 51.5844 260 51Z" fill="white"/>
<path d="M8.89829 59.5282L6.0271 58.2571C4.59874 57.6363 2.82294 56.8638 2.82294 54.7861C2.82294 52.855 4.38641 51.6133 6.81366 51.6133C8.5412 51.6133 10.0323 52.2488 11.2387 53.5004L11.3448 53.6128L12.3727 52.4248L12.2858 52.3319C10.8816 50.8506 8.88382 50 6.81366 50C3.47439 50 1.04714 52.0533 1.04714 54.879C1.04714 57.7047 3.16555 58.9562 5.00891 59.7629L7.88493 61.0438C9.67038 61.8406 11.2097 62.5251 11.2097 64.8032C11.2097 67.0814 9.43875 68.3867 6.69785 68.3867C4.65182 68.3867 2.65887 67.4774 1.23534 65.8885L1.134 65.7761L0 66.9983L0.0868597 67.0912C1.80475 68.9929 4.08723 70 6.68337 70C10.399 70 13 67.8196 13 64.6957C13 61.5717 10.8864 60.3984 8.90312 59.5233L8.89829 59.5282Z" fill="white"/>
<path d="M26.0203 66.9132C25.2689 67.6183 24.0467 68.4615 22.4916 68.4615C19.6619 68.4615 17.7596 66.0749 17.7596 62.5247C17.7596 58.9744 19.7618 56.5385 22.5153 56.5385C23.6139 56.5385 24.5651 56.9773 25.6018 57.9536L25.7112 58.0572L26.6956 56.8442L26.6005 56.7554C25.7302 55.9369 24.4747 55 22.4773 55C18.2257 55 16 58.787 16 62.5247C16 66.997 18.5776 70 22.4107 70C24.0086 70 25.5638 69.3491 26.9096 68.1213L27 68.0375L26.1345 66.8047L26.0203 66.9132Z" fill="white"/>
<path d="M36.5178 55.4976C34.5466 55.4976 33.0459 56.5707 31.7335 57.7951L31.7632 55.1024V49H30V69.9951H31.7632V59.5122C33.3728 57.9171 34.5615 57.0585 36.1959 57.0585C38.3305 57.0585 39.2368 58.2878 39.2368 61.1659V70H41V60.9805C41 57.2976 39.534 55.5073 36.5128 55.5073L36.5178 55.4976Z" fill="white"/>
<path d="M50.5 55C47.3693 55 44 57.357 44 62.5247C44 66.2377 46.23 70 50.5 70C54.77 70 57 66.2377 57 62.5247C57 57.3521 53.6307 55 50.5 55ZM50.5 68.4615C47.7345 68.4615 45.8015 66.0207 45.8015 62.5247C45.8015 59.0286 47.7783 56.5385 50.5 56.5385C53.2217 56.5385 55.1985 59.0582 55.1985 62.5247C55.1985 65.9911 53.2655 68.4615 50.5 68.4615Z" fill="white"/>
<path d="M66.5 55C63.3693 55 60 57.357 60 62.5247C60 66.2377 62.23 70 66.5 70C70.77 70 73 66.2377 73 62.5247C73 57.3521 69.6307 55 66.5 55ZM66.5 68.4615C63.7345 68.4615 61.8015 66.0207 61.8015 62.5247C61.8015 59.0286 63.7783 56.5385 66.5 56.5385C69.2217 56.5385 71.1985 59.0582 71.1985 62.5247C71.1985 65.9911 69.2655 68.4615 66.5 68.4615Z" fill="white"/>
<path d="M78.5901 68.4448C78.3292 68.4976 78.2314 68.4976 78.1149 68.4976C77.8261 68.4976 77.6584 68.2192 77.6584 67.7296V49H76V67.5616C76 69.1792 76.6335 70 77.8913 70C78.3618 70 78.6413 69.9136 78.8835 69.8416L79 69.808L78.7252 68.4208L78.5901 68.4496V68.4448Z" fill="white"/>
<path d="M96.5 55C93.3693 55 90 57.357 90 62.5247C90 66.2377 92.23 70 96.5 70C100.77 70 103 66.2377 103 62.5247C103 57.3521 99.6307 55 96.5 55ZM96.5 68.4615C93.7345 68.4615 91.8015 66.0207 91.8015 62.5247C91.8015 59.0286 93.7783 56.5385 96.5 56.5385C99.2217 56.5385 101.199 59.0582 101.199 62.5247C101.199 65.9911 99.2655 68.4615 96.5 68.4615Z" fill="white"/>
<path d="M110.81 48C108.492 48 107.219 49.5264 107.219 52.3008V55.0848L105 55.2048V56.5584H107.219V69H108.892V56.5584H111.999V55.0752H108.892V52.3776C108.892 50.4576 109.555 49.4832 110.861 49.4832C111.383 49.4832 111.919 49.608 112.412 49.8528L112.553 49.92L113 48.5232L112.887 48.4752C112.196 48.168 111.458 48 110.81 48Z" fill="white"/>
<path d="M131.898 59.5282L129.027 58.2571C127.599 57.6363 125.823 56.8638 125.823 54.7861C125.823 52.855 127.386 51.6133 129.814 51.6133C131.541 51.6133 133.032 52.2488 134.239 53.5004L134.345 53.6128L135.373 52.4248L135.286 52.3319C133.882 50.8506 131.884 50 129.814 50C126.474 50 124.047 52.0533 124.047 54.879C124.047 57.7047 126.166 58.9562 128.009 59.7629L130.885 61.0438C132.67 61.8406 134.21 62.5251 134.21 64.8032C134.21 67.0814 132.439 68.3867 129.698 68.3867C127.652 68.3867 125.659 67.4774 124.235 65.8885L124.134 65.7761L123 66.9983L123.087 67.0912C124.805 68.9929 127.087 70 129.683 70C133.399 70 136 67.8196 136 64.6957C136 61.5717 133.886 60.3984 131.903 59.5233L131.898 59.5282Z" fill="white"/>
<path d="M149.222 65.9192C147.529 67.823 146.374 68.5015 144.83 68.5015C142.684 68.5015 141.773 67.314 141.773 64.5338V56H140V64.7129C140 68.2706 141.474 70 144.512 70C146.239 70 147.733 69.2508 149.327 67.5779L149.471 69.6654H151V56H149.227V65.9192H149.222Z" fill="white"/>
<path d="M159.863 61.6146L159.434 61.4469C157.868 60.8402 156.387 60.268 156.387 58.8228C156.387 57.7475 157.142 56.4896 159.259 56.4896C160.604 56.4896 161.571 57.0865 162.415 57.7376L162.524 57.8214L163.42 56.5883L163.316 56.5044C162.189 55.5623 160.679 55 159.278 55C156.113 55 154.693 56.9632 154.693 58.9066C154.693 61.442 157.132 62.3348 159.094 63.05C160.726 63.6567 162.316 64.3818 162.316 65.9651C162.316 67.2328 161.373 68.5104 159.269 68.5104C157.344 68.5104 156.108 67.6817 155.061 66.784L154.953 66.6902L154 67.9382L154.099 68.027C155.538 69.2798 157.396 70 159.208 70C162.5 70 164 67.8593 164 65.8764C164 63.2078 161.892 62.394 159.854 61.6097L159.863 61.6146Z" fill="white"/>
<path d="M174.44 68.1245C174.01 68.3144 173.334 68.5328 172.835 68.5328C171.335 68.5328 170.725 67.7494 170.725 65.8217V57.3558H174.57V55.8887H170.725V52H169.295L169.124 55.8982L167 56.0169V57.3558H169.078V65.7362C169.078 68.6468 170.197 70 172.608 70C173.325 70 174.338 69.6771 174.88 69.4872L175 69.4445L174.579 68.0675L174.44 68.1293V68.1245Z" fill="white"/>
<path d="M183.219 55C180.821 55 178.756 56.1588 177.736 56.8491L177.627 56.9231L178.443 58.2199L178.572 58.1262C179.398 57.5296 181.075 56.5286 183.035 56.5286C183.96 56.5286 184.692 56.7899 185.214 57.3077C185.891 57.9783 186.234 59.0828 186.229 60.5966C179.677 61.3166 177 62.8846 177 66.001C177 68.9497 179.234 70 181.323 70C182.891 70 184.527 69.3245 186.328 67.9339L186.473 69.6499H188V60.6016C188 56.9379 186.348 55 183.229 55H183.219ZM186.219 61.9428V66.3659C184.398 67.8698 183.06 68.4862 181.617 68.4862C180.766 68.4862 178.786 68.2347 178.786 65.9172C178.786 63.5996 180.945 62.5542 186.224 61.9379L186.219 61.9428Z" fill="white"/>
<path d="M195 56H193V70H195V56Z" fill="white"/>
<path d="M175 0H173V35H175V0Z" fill="white"/>
<path d="M206.518 55C204.487 55 202.982 56.0787 201.664 57.2799L201.52 55.3345H200V68.9953H201.763V58.8721C203.373 57.3318 204.561 56.5027 206.196 56.5027C208.33 56.5027 209.237 57.6898 209.237 60.469V69H211V60.29C211 56.7335 209.534 55.0047 206.513 55.0047L206.518 55Z" fill="white"/>
<path d="M221.219 55C218.821 55 216.756 56.1588 215.736 56.8491L215.627 56.9231L216.443 58.2199L216.572 58.1262C217.398 57.5296 219.075 56.5286 221.035 56.5286C221.96 56.5286 222.692 56.7899 223.214 57.3077C223.891 57.9783 224.234 59.0828 224.229 60.5966C217.677 61.3166 215 62.8846 215 66.001C215 68.9497 217.234 70 219.323 70C220.891 70 222.527 69.3245 224.328 67.9339L224.473 69.6499H226V60.6016C226 56.9379 224.348 55 221.229 55H221.219ZM224.219 61.9428V66.3659C222.398 67.8698 221.06 68.4862 219.617 68.4862C218.766 68.4862 216.786 68.2347 216.786 65.9172C216.786 63.5996 218.945 62.5542 224.224 61.9379L224.219 61.9428Z" fill="white"/>
<path d="M236.261 55.3936C234.851 55.3936 233.268 56.0656 231.66 57.3376L231.718 55.0048V49H230V69.6592H231.453L231.603 68.3536C232.949 69.4 234.441 70 235.715 70C239.842 70 242 66.2224 242 62.4928C242 57.9856 239.91 55.3984 236.27 55.3984L236.261 55.3936ZM231.718 59.0176C233.302 57.6112 234.745 56.896 236.01 56.896C239.48 56.896 240.209 59.9392 240.209 62.4976C240.209 66.0256 238.312 68.488 235.595 68.488C234.402 68.488 232.959 67.8784 231.723 66.8512V59.0128L231.718 59.0176Z" fill="white"/>
<path d="M248 56H246V70H248V56Z" fill="white"/>
<path d="M255.59 68.4448C255.329 68.4976 255.231 68.4976 255.115 68.4976C254.826 68.4976 254.658 68.2192 254.658 67.7296V49H253V67.5616C253 69.1792 253.634 70 254.891 70C255.362 70 255.641 69.9136 255.884 69.8416L256 69.808L255.725 68.4208L255.59 68.4496V68.4448Z" fill="white"/>
<path d="M262 56H260V70H262V56Z" fill="white"/>
<path d="M273.44 68.1245C273.01 68.3144 272.334 68.5328 271.835 68.5328C270.335 68.5328 269.725 67.7494 269.725 65.8217V57.3558H273.57V55.8887H269.725V52H268.295L268.124 55.8982L266 56.0169V57.3558H268.077V65.7362C268.077 68.6468 269.197 70 271.608 70C272.325 70 273.338 69.6771 273.88 69.4872L274 69.4445L273.579 68.0675L273.44 68.1293V68.1245Z" fill="white"/>
<path d="M287.173 56L284.116 64.4854C283.951 64.9489 283.775 65.4601 283.599 65.9809C283.358 66.6928 283.107 67.4333 282.856 68.107C282.565 67.4095 282.259 66.6546 281.963 65.9188C281.762 65.4171 281.566 64.9298 281.381 64.4806L277.952 56.086L277.917 56H276L282.008 69.9513L281.637 71.0597C281.08 72.6173 280.02 74.4711 278.118 74.4711C277.727 74.4711 277.27 74.3564 276.994 74.2609L276.843 74.2083L276.437 75.656L276.547 75.7038C276.994 75.8901 277.566 76 278.123 76C280.407 76 282.124 74.452 283.228 71.3942L288.93 56.1863L289 56.0048H287.173V56Z" fill="white"/>
</g>
<defs>
<clipPath id="clip0_859_10486">
<rect width="290" height="76" fill="white"/>
</clipPath>
</defs>
</svg>
